<svg id="svg" version="1.1" width="1000" height="1000" xmlns="http://www.w3.org/2000/svg" xmlns:xlink="http://www.w3.org/1999/xlink" style="display: block;"><g id="svgg"><path id="path0" d="M121.996 200.100 C 119.844 201.565,119.046 202.944,119.046 205.200 C 119.046 211.211,126.451 213.237,130.175 208.245 C 132.718 204.837,129.493 199.200,125.000 199.200 C 123.915 199.200,122.849 199.519,121.996 200.100 M71.200 203.400 C 71.200 206.678,71.835 207.422,74.971 207.814 L 77.207 208.093 77.104 228.530 L 77.000 248.967 74.624 249.443 C 71.669 250.035,71.200 250.643,71.200 253.876 L 71.200 256.400 91.400 256.400 L 111.600 256.400 111.600 249.800 L 111.600 243.200 109.249 243.200 C 106.525 243.200,106.207 243.469,105.826 246.100 L 105.551 248.000 96.575 248.000 L 87.600 248.000 87.600 228.071 L 87.600 208.141 90.069 207.682 C 93.042 207.129,93.186 206.937,93.194 203.500 L 93.200 200.800 82.200 200.800 L 71.200 200.800 71.200 203.400 M176.437 205.356 C 176.183 205.661,175.503 208.406,174.925 211.456 C 173.673 218.062,174.276 217.186,170.631 217.697 L 167.600 218.122 167.600 220.581 C 167.600 223.665,167.941 224.000,171.080 224.000 L 173.600 224.000 173.600 236.921 L 173.600 249.843 174.641 251.933 C 177.264 257.196,184.606 258.775,191.400 255.537 C 194.678 253.975,194.669 254.006,192.793 251.035 C 191.020 248.229,190.499 247.979,188.546 248.998 C 186.892 249.860,185.405 249.738,184.122 248.635 L 183.000 247.670 182.883 235.835 L 182.766 224.000 187.983 224.000 L 193.200 224.000 193.200 220.600 L 193.200 217.200 188.000 217.200 L 182.800 217.200 182.800 211.000 L 182.800 204.800 179.849 204.800 C 177.819 204.800,176.754 204.973,176.437 205.356 M256.069 216.594 C 253.534 217.385,251.279 219.098,249.375 221.681 L 247.692 223.962 247.446 222.731 C 247.311 222.054,247.200 220.971,247.200 220.324 C 247.200 219.079,246.573 217.596,245.840 217.106 C 245.598 216.944,242.565 216.809,239.100 216.806 L 232.800 216.800 232.806 219.500 C 232.814 223.155,233.242 223.643,236.906 224.174 L 238.811 224.451 238.706 236.709 L 238.600 248.968 236.311 249.426 C 233.062 250.077,232.800 250.391,232.800 253.649 L 232.800 256.400 243.400 256.400 L 254.000 256.400 254.000 253.662 C 254.000 250.359,253.560 249.830,250.400 249.336 L 248.200 248.993 248.092 240.423 L 247.984 231.854 249.405 229.713 C 251.756 226.172,254.809 224.833,258.992 225.508 C 262.535 226.080,262.516 226.097,263.216 221.678 C 263.450 220.205,263.738 218.607,263.857 218.126 C 264.263 216.488,259.445 215.540,256.069 216.594 M147.898 216.809 C 141.455 218.436,137.516 223.661,138.151 229.739 C 138.677 234.765,141.381 237.249,149.271 239.950 C 156.425 242.399,157.600 243.230,157.600 245.835 C 157.600 248.831,155.023 250.402,150.120 250.395 C 145.117 250.387,144.882 250.288,144.607 248.058 C 144.131 244.211,144.134 244.214,140.892 244.082 L 138.000 243.965 138.000 249.530 L 138.000 255.095 140.300 255.720 C 155.214 259.775,166.400 254.780,166.400 244.064 C 166.400 238.788,163.313 235.702,155.550 233.216 C 148.650 231.006,147.011 229.871,147.082 227.356 C 147.159 224.646,149.535 223.200,153.911 223.200 C 157.318 223.200,157.837 223.592,158.145 226.400 C 158.443 229.122,159.032 229.600,162.087 229.600 L 164.422 229.600 164.311 223.916 L 164.200 218.232 161.800 217.473 C 159.043 216.602,150.362 216.187,147.898 216.809 M207.610 217.017 C 190.249 221.872,189.886 250.685,207.119 256.008 C 214.332 258.236,223.089 256.809,228.272 252.562 C 230.388 250.828,230.389 250.776,228.363 248.356 C 226.361 245.965,225.752 245.915,221.981 247.837 C 213.124 252.351,204.000 248.062,204.000 239.385 L 204.000 238.000 216.571 238.000 C 231.361 238.000,230.405 238.300,230.390 233.671 C 230.351 221.218,219.902 213.580,207.610 217.017 M114.400 219.751 C 114.400 223.246,114.577 223.460,117.961 224.056 L 120.411 224.487 120.306 236.740 L 120.200 248.993 118.000 249.336 C 114.840 249.830,114.400 250.359,114.400 253.662 L 114.400 256.400 125.000 256.400 L 135.600 256.400 135.600 253.876 C 135.600 250.643,135.131 250.035,132.176 249.443 L 129.800 248.967 129.695 232.884 L 129.591 216.800 121.995 216.800 L 114.400 216.800 114.400 219.751 M217.319 223.740 C 219.819 224.785,221.991 228.201,221.998 231.100 L 222.000 232.000 213.000 232.000 C 207.501 232.000,204.000 231.850,204.000 231.615 C 204.000 225.951,211.706 221.395,217.319 223.740 " stroke="none" fill="#ffffff" fill-rule="evenodd"></path><path id="path1" d="M202.705 99.100 C 202.602 99.705,202.019 102.052,201.409 104.317 C 200.799 106.581,200.367 108.491,200.450 108.561 C 200.532 108.631,202.760 109.360,205.400 110.181 C 228.366 117.328,250.069 131.803,265.400 150.200 C 266.500 151.520,267.495 152.690,267.610 152.800 C 267.873 153.050,271.265 157.752,273.670 161.200 C 279.715 169.867,285.332 181.367,289.078 192.749 C 290.282 196.407,291.333 199.465,291.412 199.545 C 291.542 199.675,301.613 197.212,301.928 196.974 C 302.245 196.734,299.123 187.032,296.959 181.530 C 292.454 170.077,281.619 151.193,276.801 146.400 C 276.690 146.290,275.885 145.300,275.011 144.200 C 269.561 137.343,260.035 128.135,251.799 121.763 C 239.789 112.473,224.995 104.778,209.662 99.846 C 202.920 97.677,202.945 97.680,202.705 99.100 " stroke="none" fill="#e51937" fill-rule="evenodd"></path><path id="path2" d="M217.610 43.943 C 217.392 44.744,216.860 46.660,216.429 48.200 C 215.009 53.267,214.998 53.226,218.000 54.021 C 229.393 57.042,248.172 64.892,258.800 71.077 C 259.570 71.525,260.920 72.310,261.800 72.821 C 265.699 75.087,278.762 83.869,279.600 84.786 C 279.710 84.907,281.600 86.438,283.800 88.188 C 290.668 93.652,297.008 99.556,303.400 106.437 C 307.256 110.588,308.445 111.968,311.812 116.200 C 313.562 118.400,315.093 120.290,315.214 120.400 C 315.651 120.799,321.947 129.876,323.815 132.800 C 332.196 145.921,338.518 159.219,343.498 174.200 C 344.595 177.500,345.723 181.100,346.005 182.200 C 346.287 183.300,346.646 184.346,346.803 184.524 C 347.025 184.776,354.430 183.104,357.075 182.205 C 357.905 181.924,352.607 165.085,349.339 157.618 C 348.998 156.838,348.574 155.840,348.397 155.400 C 337.550 128.367,315.853 99.825,290.200 78.842 C 272.545 64.402,247.941 51.461,224.600 44.341 C 217.702 42.236,218.069 42.257,217.610 43.943 " stroke="none" fill="#ffde00" fill-rule="evenodd"></path><path id="path3" d="M212.800 61.389 C 212.800 61.493,212.260 63.629,211.600 66.136 C 210.051 72.022,210.012 71.751,212.500 72.378 C 226.019 75.786,245.651 84.792,258.943 93.684 C 262.417 96.007,271.574 102.655,272.000 103.162 C 272.110 103.293,273.280 104.295,274.600 105.388 C 280.797 110.521,289.451 119.176,294.610 125.400 C 295.705 126.720,296.701 127.890,296.825 128.000 C 297.509 128.606,303.509 136.868,306.267 141.000 C 315.406 154.692,324.015 173.454,327.622 187.534 C 328.265 190.042,328.068 190.022,334.591 188.241 C 339.400 186.927,339.063 187.240,338.414 184.693 C 332.738 162.429,319.067 136.983,301.807 116.558 C 290.476 103.148,270.599 86.742,255.828 78.607 C 254.933 78.114,253.139 77.126,251.842 76.411 C 249.114 74.908,240.094 70.400,239.813 70.400 C 239.709 70.400,238.583 69.923,237.312 69.340 C 234.114 67.874,224.539 64.346,220.200 63.036 C 218.220 62.438,216.078 61.780,215.440 61.574 C 214.204 61.175,212.800 61.077,212.800 61.389 " stroke="none" fill="#00a261" fill-rule="evenodd"></path><path id="path4" d="M158.200 112.628 C 104.420 117.707,62.707 153.259,50.056 204.800 C 44.405 227.820,46.637 257.472,55.581 278.200 C 56.056 279.300,56.749 280.915,57.122 281.789 C 60.760 290.318,69.490 304.332,74.818 310.200 C 75.418 310.860,77.349 313.020,79.111 315.000 C 80.872 316.980,82.828 319.039,83.457 319.575 C 84.085 320.111,86.158 321.942,88.062 323.644 C 109.386 342.703,136.749 352.895,166.800 352.972 C 179.755 353.005,186.239 352.255,197.617 349.406 C 222.257 343.236,247.316 326.734,262.013 307.000 C 262.996 305.680,264.037 304.350,264.327 304.044 C 266.084 302.192,271.641 293.078,274.719 287.000 C 288.727 259.340,291.350 225.755,281.830 195.954 C 278.759 186.341,272.717 173.713,267.542 166.091 C 266.088 163.949,261.940 158.304,261.597 158.000 C 261.473 157.890,260.271 156.450,258.925 154.800 C 256.199 151.457,247.288 142.606,244.200 140.175 C 243.100 139.309,242.110 138.510,242.000 138.400 C 232.932 129.332,207.936 117.902,189.444 114.367 C 182.019 112.948,164.899 111.995,158.200 112.628 M128.199 199.961 C 131.045 201.581,132.090 205.536,130.402 208.304 C 127.933 212.353,121.601 212.172,119.501 207.992 C 116.699 202.415,122.728 196.849,128.199 199.961 M93.600 203.111 C 93.600 206.493,93.018 207.434,90.702 207.794 C 87.252 208.330,87.600 206.037,87.600 228.227 L 87.600 248.000 96.600 248.000 L 105.600 248.000 105.600 246.374 C 105.600 243.575,106.027 243.200,109.214 243.200 L 112.000 243.200 112.000 250.000 L 112.000 256.800 91.600 256.800 L 71.200 256.800 71.200 253.829 C 71.200 250.233,71.526 249.812,74.811 249.166 L 77.200 248.696 77.200 228.576 L 77.200 208.457 74.900 207.987 C 71.557 207.304,71.200 206.855,71.200 203.338 L 71.200 200.400 82.400 200.400 L 93.600 200.400 93.600 203.111 M182.800 210.800 L 182.800 217.200 188.200 217.200 L 193.600 217.200 193.600 220.600 L 193.600 224.000 188.200 224.000 L 182.800 224.000 182.802 234.700 C 182.805 245.770,183.066 248.086,184.391 248.795 C 185.485 249.381,187.622 249.288,188.946 248.598 C 190.722 247.671,190.997 247.819,192.776 250.657 C 194.793 253.872,194.726 254.102,191.312 255.700 C 185.805 258.277,179.209 257.636,176.057 254.216 C 173.398 251.331,173.200 250.078,173.200 236.127 L 173.200 224.000 170.614 224.000 C 167.549 224.000,167.200 223.620,167.200 220.274 L 167.200 218.095 170.443 217.569 C 172.226 217.279,173.738 216.852,173.801 216.621 C 173.865 216.389,174.145 214.850,174.423 213.200 C 175.912 204.368,175.880 204.416,180.300 204.406 L 182.800 204.400 182.800 210.800 M159.834 216.752 C 160.475 216.949,161.765 217.317,162.700 217.571 L 164.400 218.032 164.400 223.816 L 164.400 229.600 161.614 229.600 C 158.404 229.600,158.252 229.455,157.868 226.046 C 157.564 223.349,157.817 223.524,154.124 223.457 C 144.621 223.284,144.561 229.222,154.032 232.497 C 163.354 235.722,165.289 237.242,166.405 242.221 C 168.946 253.559,153.345 261.167,139.100 255.538 L 138.000 255.103 138.000 249.351 L 138.000 243.600 140.500 243.606 C 143.781 243.614,144.040 243.833,144.568 247.058 C 145.086 250.215,145.189 250.275,150.200 250.344 C 154.962 250.409,157.200 248.924,157.200 245.696 C 157.200 243.285,155.497 242.030,150.018 240.403 C 141.135 237.765,138.027 234.653,138.009 228.379 C 137.982 219.334,149.035 213.446,159.834 216.752 M220.202 217.235 C 226.337 219.531,230.081 225.057,230.664 232.682 C 230.870 235.370,230.795 236.148,230.249 236.982 L 229.582 238.000 216.766 238.000 L 203.951 238.000 204.223 239.900 C 205.545 249.147,212.911 252.036,222.893 247.222 C 226.012 245.718,226.641 245.863,228.788 248.584 C 230.552 250.821,230.499 251.055,227.763 253.146 C 218.156 260.488,202.149 257.672,196.910 247.717 C 187.663 230.144,202.568 210.638,220.202 217.235 M262.086 216.417 C 262.903 216.644,263.684 217.013,263.823 217.237 C 264.202 217.850,262.745 225.591,262.239 225.659 C 261.998 225.692,259.987 225.737,257.772 225.759 C 253.219 225.805,251.955 226.413,249.573 229.701 L 248.400 231.320 248.400 240.025 L 248.400 248.731 250.889 249.267 C 253.886 249.913,254.385 250.630,254.394 254.300 L 254.400 256.800 243.600 256.800 L 232.800 256.800 232.800 253.876 C 232.800 250.289,233.146 249.800,236.100 249.206 L 238.400 248.743 238.400 236.623 L 238.400 224.503 236.486 224.249 C 233.269 223.822,232.800 223.253,232.800 219.777 L 232.800 216.800 239.391 216.800 C 247.063 216.800,246.940 216.734,247.427 221.113 C 247.695 223.528,247.730 223.590,248.313 222.713 C 251.864 217.367,257.020 215.010,262.086 216.417 M130.000 232.772 L 130.000 248.743 132.200 249.200 C 135.278 249.839,135.600 250.277,135.600 253.829 L 135.600 256.800 124.800 256.800 L 114.000 256.800 114.000 254.089 C 114.000 250.518,114.499 249.842,117.584 249.235 L 120.000 248.760 120.000 236.580 C 120.000 224.554,119.990 224.400,119.177 224.400 C 115.333 224.400,114.000 223.056,114.000 219.181 L 114.000 216.800 122.000 216.800 L 130.000 216.800 130.000 232.772 M210.834 223.468 C 208.014 224.067,205.039 227.417,204.527 230.570 L 204.295 232.000 213.166 232.000 L 222.036 232.000 221.778 230.500 C 220.842 225.064,216.487 222.266,210.834 223.468 " stroke="none" fill="#343d3e" fill-rule="evenodd"></path><path id="path5" d="M178.691 204.689 C 179.401 204.777,180.661 204.779,181.491 204.692 C 182.321 204.605,181.740 204.533,180.200 204.531 C 178.660 204.529,177.981 204.600,178.691 204.689 M129.782 232.800 C 129.782 241.710,129.835 245.355,129.900 240.900 C 129.964 236.445,129.964 229.155,129.900 224.700 C 129.835 220.245,129.782 223.890,129.782 232.800 M194.109 236.000 C 194.109 236.990,194.187 237.395,194.282 236.900 C 194.378 236.405,194.378 235.595,194.282 235.100 C 194.187 234.605,194.109 235.010,194.109 236.000 M254.131 254.200 C 254.133 255.740,254.205 256.321,254.292 255.491 C 254.379 254.661,254.377 253.401,254.289 252.691 C 254.200 251.981,254.129 252.660,254.131 254.200 " stroke="none" fill="#5a6162" fill-rule="evenodd"></path><path id="path6" d="M222.059 27.088 C 220.631 32.414,220.091 34.596,220.177 34.697 C 220.222 34.750,222.676 35.508,225.630 36.381 C 239.878 40.594,257.642 48.108,267.861 54.243 C 268.554 54.659,270.306 55.682,271.755 56.517 C 275.832 58.864,284.735 64.839,289.706 68.564 C 293.837 71.660,296.075 73.466,302.634 78.995 C 329.761 101.864,353.271 138.811,363.803 175.124 C 364.524 177.612,365.184 179.718,365.269 179.803 C 365.430 179.963,375.564 177.370,375.835 177.099 C 376.028 176.906,373.796 169.303,371.695 163.000 C 363.932 139.706,349.556 113.900,334.152 95.607 C 333.686 95.053,332.251 93.340,330.963 91.800 C 325.239 84.953,315.047 74.761,308.200 69.037 C 306.660 67.749,304.947 66.314,304.393 65.848 C 282.408 47.335,252.729 32.028,223.547 24.152 C 223.030 24.013,222.721 24.623,222.059 27.088 " stroke="none" fill="#009ddc" fill-rule="evenodd"></path><path id="path7" d="M82.181 200.697 L 93.162 200.813 93.310 203.106 L 93.457 205.400 93.429 203.000 L 93.400 200.600 82.300 200.590 L 71.200 200.581 82.181 200.697 M167.320 220.400 C 167.320 221.610,167.395 222.105,167.487 221.500 C 167.578 220.895,167.578 219.905,167.487 219.300 C 167.395 218.695,167.320 219.190,167.320 220.400 M173.378 236.000 C 173.378 242.710,173.432 245.455,173.499 242.100 C 173.566 238.745,173.566 233.255,173.499 229.900 C 173.432 226.545,173.378 229.290,173.378 236.000 M120.000 236.680 C 119.890 243.545,119.938 249.023,120.106 248.854 C 120.274 248.686,120.364 243.070,120.306 236.374 L 120.199 224.200 120.000 236.680 M248.080 240.076 C 248.036 244.848,248.135 248.837,248.300 248.939 C 248.465 249.042,248.554 246.487,248.497 243.263 C 248.306 232.442,248.162 231.337,248.080 240.076 M230.509 234.000 C 230.509 234.990,230.587 235.395,230.682 234.900 C 230.778 234.405,230.778 233.595,230.682 233.100 C 230.587 232.605,230.509 233.010,230.509 234.000 M111.689 249.696 L 111.600 256.393 91.300 256.500 L 71.000 256.607 91.313 256.704 C 107.600 256.781,111.664 256.698,111.823 256.284 C 111.932 256.000,111.966 252.895,111.900 249.384 L 111.778 243.000 111.689 249.696 M139.100 243.889 C 139.815 243.978,140.985 243.978,141.700 243.889 C 142.415 243.801,141.830 243.728,140.400 243.728 C 138.970 243.728,138.385 243.801,139.100 243.889 M119.724 256.699 C 122.762 256.767,127.622 256.767,130.524 256.699 C 133.426 256.631,130.940 256.575,125.000 256.575 C 119.060 256.575,116.686 256.631,119.724 256.699 M238.124 256.699 C 241.162 256.767,246.022 256.767,248.924 256.699 C 251.826 256.631,249.340 256.575,243.400 256.575 C 237.460 256.575,235.086 256.631,238.124 256.699 " stroke="none" fill="#b2b6b6" fill-rule="evenodd"></path><path id="path8" d="M207.636 81.100 C 207.418 81.925,206.864 84.040,206.403 85.800 C 205.943 87.560,205.483 89.281,205.380 89.624 C 205.241 90.093,205.716 90.379,207.297 90.780 C 254.003 102.618,295.765 144.297,309.014 192.295 C 309.795 195.125,309.277 195.008,314.600 193.552 C 316.140 193.131,318.075 192.602,318.900 192.377 C 319.725 192.152,320.400 191.867,320.400 191.744 C 320.400 190.297,316.754 179.552,313.701 172.000 C 301.018 140.628,275.349 111.371,246.400 95.293 C 245.410 94.743,244.420 94.156,244.200 93.989 C 243.715 93.620,234.116 88.815,231.600 87.683 C 225.098 84.755,210.347 79.600,208.472 79.600 C 208.229 79.600,207.853 80.275,207.636 81.100 " stroke="none" fill="#522f91" fill-rule="evenodd"></path><path id="path9" d="M159.100 91.098 C 155.441 91.237,154.001 92.312,156.600 92.964 C 157.474 93.184,157.600 93.434,157.600 94.945 C 157.600 95.896,157.717 98.842,157.859 101.492 C 158.111 106.178,158.095 106.316,157.259 106.581 C 152.946 107.950,162.394 109.369,167.900 108.179 C 169.347 107.866,169.255 104.000,167.800 104.000 C 167.016 104.000,166.800 104.204,166.800 104.944 C 166.800 105.785,166.569 105.916,164.700 106.141 C 160.228 106.678,160.400 106.778,160.400 103.627 L 160.400 100.855 163.600 100.576 C 166.677 100.307,166.800 100.258,166.800 99.291 L 166.800 98.286 163.631 98.503 L 160.463 98.720 160.331 95.986 L 160.200 93.253 163.301 93.126 L 166.402 93.000 166.401 94.100 C 166.400 95.007,166.576 95.200,167.400 95.200 C 168.345 95.200,168.400 95.080,168.400 93.000 L 168.400 90.800 165.500 90.882 C 163.905 90.927,161.025 91.025,159.100 91.098 M138.600 93.546 C 132.040 95.259,130.052 103.525,134.948 108.731 C 137.994 111.971,142.758 112.024,146.454 108.861 L 148.102 107.450 147.188 106.710 C 146.291 105.983,146.256 105.988,145.237 106.960 C 140.073 111.885,132.567 105.764,135.537 99.050 C 136.977 95.794,142.921 94.106,143.460 96.800 C 143.947 99.235,145.766 98.461,145.468 95.946 C 145.334 94.816,145.155 93.822,145.069 93.736 C 144.732 93.398,139.729 93.251,138.600 93.546 M117.300 99.872 C 114.536 100.975,113.615 102.590,115.900 102.327 C 116.957 102.205,117.075 102.387,118.917 106.950 C 121.155 112.495,121.174 112.365,118.375 110.657 C 117.179 109.928,114.166 108.117,111.681 106.634 L 107.162 103.937 105.415 104.659 C 103.517 105.444,103.453 106.798,105.314 106.802 C 106.731 106.805,111.322 118.629,110.219 119.436 C 108.196 120.915,109.988 121.595,112.910 120.456 C 115.818 119.323,116.336 118.375,114.249 118.003 C 113.051 117.790,113.232 118.132,109.953 109.868 L 109.186 107.936 110.355 108.768 C 110.998 109.226,111.617 109.600,111.732 109.600 C 111.847 109.600,113.382 110.484,115.142 111.564 C 125.828 118.123,125.944 118.070,122.070 108.383 C 119.823 102.763,119.388 101.338,119.839 101.080 C 120.412 100.753,120.643 98.770,120.100 98.837 C 119.935 98.858,118.675 99.324,117.300 99.872 M88.400 114.800 C 85.650 116.558,83.220 118.058,83.000 118.133 C 82.212 118.403,83.724 119.656,84.578 119.441 C 85.270 119.268,85.761 119.766,87.407 122.316 C 92.011 129.447,92.341 130.093,91.886 131.091 C 90.861 133.340,92.217 132.985,97.574 129.602 L 102.803 126.299 101.937 124.849 C 100.733 122.832,100.624 122.739,99.828 123.044 C 99.299 123.248,99.180 123.598,99.350 124.450 C 99.551 125.453,95.149 129.461,94.644 128.736 C 91.501 124.232,91.505 124.312,94.400 122.502 C 96.897 120.942,97.209 120.438,96.198 119.598 C 95.700 119.185,95.168 119.380,93.119 120.727 L 90.642 122.355 89.321 120.393 C 87.630 117.882,87.611 117.971,90.194 116.257 C 92.637 114.634,93.012 114.532,93.345 115.400 C 93.603 116.072,95.020 116.214,95.397 115.606 C 95.581 115.308,93.786 111.593,93.462 111.602 C 93.428 111.603,91.150 113.042,88.400 114.800 M67.186 131.940 C 64.919 133.971,64.705 135.921,66.876 134.759 C 67.312 134.526,67.703 134.395,67.745 134.468 C 67.944 134.815,75.850 143.436,76.200 143.688 C 76.459 143.874,76.411 144.281,76.065 144.838 C 75.613 145.567,75.621 145.792,76.114 146.285 C 76.626 146.798,77.234 146.388,81.049 142.960 C 86.230 138.304,85.882 138.924,84.361 137.079 C 82.921 135.333,81.765 135.617,82.202 137.610 C 82.408 138.548,82.162 138.925,80.357 140.436 L 78.275 142.179 75.910 139.590 C 70.163 133.298,69.648 132.614,70.079 131.845 C 71.189 129.862,69.442 129.920,67.186 131.940 M51.837 149.952 C 50.827 151.265,50.000 152.424,50.000 152.527 C 50.000 152.978,51.322 153.163,51.990 152.805 C 53.122 152.200,63.304 160.314,62.721 161.356 C 62.239 162.217,62.845 163.022,63.722 162.685 C 64.237 162.487,71.200 153.924,71.200 153.488 C 71.200 152.797,67.906 151.104,67.576 151.625 C 67.088 152.397,67.109 152.949,67.648 153.488 C 67.979 153.819,67.620 154.521,66.277 156.169 C 64.786 158.000,64.363 158.309,63.929 157.889 C 63.638 157.607,61.376 155.789,58.902 153.849 C 55.080 150.851,54.438 150.188,54.628 149.431 C 55.186 147.206,53.743 147.475,51.837 149.952 M41.750 166.504 C 40.489 168.757,39.118 171.212,38.702 171.960 C 38.095 173.053,38.050 173.385,38.473 173.654 C 39.202 174.116,39.459 174.084,40.091 173.452 C 41.014 172.528,51.965 178.610,51.985 180.057 C 51.997 180.906,53.049 181.991,53.393 181.509 C 53.729 181.038,58.812 171.668,58.985 171.200 C 59.317 170.304,55.684 168.423,55.174 169.228 C 54.649 170.059,54.708 170.290,55.610 170.922 C 56.328 171.425,54.904 175.213,53.443 176.690 C 53.327 176.807,49.502 174.802,49.058 174.391 C 48.869 174.217,49.377 172.871,50.186 171.399 C 50.995 169.927,51.599 168.675,51.528 168.616 C 50.075 167.399,49.698 167.602,48.232 170.392 L 46.775 173.165 44.421 171.882 L 42.067 170.600 43.398 168.200 C 44.611 166.014,44.839 165.809,45.951 165.900 C 48.324 166.093,48.370 164.601,46.029 163.415 L 44.041 162.407 41.750 166.504 M33.356 186.700 C 29.145 193.202,32.465 200.229,40.158 201.096 C 45.889 201.742,50.683 195.574,48.753 190.038 C 47.830 187.389,46.607 188.500,46.592 192.000 C 46.564 198.564,39.702 200.867,35.257 195.804 C 32.569 192.743,33.840 187.036,37.153 187.289 C 39.381 187.460,39.431 185.987,37.220 185.300 C 34.861 184.566,34.701 184.624,33.356 186.700 M27.045 210.595 C 26.898 212.022,26.674 213.462,26.547 213.795 C 26.376 214.240,26.591 214.400,27.357 214.400 C 27.931 214.400,28.400 214.220,28.400 214.000 C 28.400 213.168,29.461 213.696,31.168 215.378 L 32.937 217.120 30.493 218.353 C 28.144 219.539,28.040 219.556,27.798 218.793 C 27.259 217.096,26.092 217.866,25.816 220.100 C 25.674 221.255,25.463 222.695,25.347 223.300 C 25.161 224.270,25.258 224.400,26.168 224.400 C 26.932 224.400,27.200 224.193,27.200 223.604 C 27.200 223.002,28.083 222.365,30.827 220.986 L 34.455 219.165 37.627 222.025 C 39.911 224.083,40.800 225.153,40.800 225.842 C 40.800 227.134,42.305 227.183,42.571 225.900 C 43.513 221.356,42.740 218.433,41.284 221.035 C 40.949 221.635,39.662 220.788,36.651 217.987 C 36.460 217.809,37.180 217.222,38.251 216.683 C 41.298 215.152,41.867 215.049,42.113 215.989 C 42.744 218.403,43.895 216.674,44.258 212.766 C 44.526 209.883,43.281 208.429,42.661 210.901 C 42.496 211.556,41.397 212.318,38.635 213.690 L 34.836 215.577 32.018 212.934 C 30.141 211.173,29.200 209.989,29.200 209.388 C 29.200 208.588,28.532 208.000,27.623 208.000 C 27.451 208.000,27.191 209.168,27.045 210.595 M114.128 219.200 C 114.128 220.630,114.201 221.215,114.289 220.500 C 114.378 219.785,114.378 218.615,114.289 217.900 C 114.201 217.185,114.128 217.770,114.128 219.200 M193.342 220.600 C 193.341 222.580,193.408 223.440,193.492 222.512 C 193.576 221.584,193.577 219.964,193.495 218.912 C 193.412 217.860,193.343 218.620,193.342 220.600 M291.600 226.200 C 291.600 228.871,292.237 229.603,293.480 228.360 C 293.801 228.039,294.313 228.061,295.360 228.440 L 296.800 228.961 296.794 232.180 C 296.787 235.839,296.701 236.042,294.854 236.790 C 293.659 237.274,293.466 237.260,293.134 236.668 C 292.352 235.270,291.600 235.907,291.600 237.967 C 291.600 239.049,291.491 240.219,291.357 240.567 C 291.174 241.045,291.371 241.200,292.157 241.200 C 292.784 241.200,293.200 240.977,293.200 240.641 C 293.200 240.284,295.551 239.207,299.700 237.664 C 309.811 233.904,308.855 234.417,308.719 232.826 L 308.600 231.442 301.128 228.252 C 295.926 226.030,293.599 224.839,293.466 224.331 C 292.918 222.237,291.600 223.557,291.600 226.200 M238.578 236.600 C 238.578 243.420,238.632 246.266,238.699 242.925 C 238.766 239.584,238.766 234.004,238.699 230.525 C 238.633 227.046,238.578 229.780,238.578 236.600 M300.849 230.764 C 301.812 231.184,303.320 231.828,304.200 232.195 L 305.800 232.863 302.622 234.032 C 298.552 235.528,298.800 235.621,298.800 232.600 C 298.800 231.170,298.867 230.000,298.949 230.000 C 299.031 230.000,299.886 230.344,300.849 230.764 M38.400 236.610 C 38.400 237.412,38.647 237.669,39.600 237.860 L 40.800 238.100 40.800 241.050 L 40.800 244.000 38.025 244.000 C 35.399 244.000,35.252 243.952,35.298 243.100 C 35.509 239.194,35.228 238.000,34.097 238.000 L 32.994 238.000 33.139 241.200 L 33.285 244.400 30.642 244.400 L 28.000 244.400 28.000 242.650 C 28.000 241.688,27.888 240.338,27.750 239.650 C 27.537 238.583,27.617 238.400,28.301 238.400 C 29.243 238.400,30.181 237.417,29.811 236.818 C 29.669 236.588,28.663 236.400,27.576 236.400 L 25.600 236.400 25.600 240.744 C 25.600 246.734,25.915 248.800,26.827 248.800 C 27.223 248.800,27.655 248.457,27.788 248.037 C 27.999 247.372,28.573 247.244,32.315 247.030 C 34.672 246.896,37.612 246.692,38.850 246.579 C 40.867 246.393,41.121 246.456,41.312 247.186 C 41.447 247.700,41.856 248.000,42.423 248.000 C 43.314 248.000,43.320 247.966,43.061 243.738 C 42.917 241.394,42.800 238.604,42.800 237.538 L 42.800 235.600 40.600 235.600 C 38.514 235.600,38.400 235.652,38.400 236.610 M290.625 250.083 C 290.256 251.247,288.330 261.663,288.460 261.789 C 289.339 262.642,292.400 262.397,292.400 261.473 C 292.400 260.797,292.152 260.413,291.662 260.328 C 291.019 260.216,291.444 255.223,292.157 254.510 C 292.697 253.969,304.617 257.176,304.722 257.890 C 304.840 258.686,306.223 259.411,306.565 258.857 C 307.961 256.597,307.446 251.741,305.997 253.513 L 305.251 254.425 298.826 253.131 C 293.446 252.048,292.400 251.723,292.400 251.133 C 292.400 250.233,290.864 249.325,290.625 250.083 M114.128 254.000 C 114.128 255.430,114.201 256.015,114.289 255.300 C 114.378 254.585,114.378 253.415,114.289 252.700 C 114.201 251.985,114.128 252.570,114.128 254.000 M47.100 269.111 C 46.619 269.212,46.400 269.639,46.400 270.473 C 46.400 272.689,42.854 277.009,41.887 275.971 C 38.999 272.871,33.600 274.990,33.600 279.225 C 33.600 280.609,35.730 287.460,36.363 288.113 C 36.896 288.663,38.000 287.945,38.000 287.049 C 38.000 285.804,49.913 281.593,50.636 282.582 C 51.073 283.180,52.800 283.466,52.800 282.941 C 52.800 282.450,51.070 277.799,50.752 277.437 C 50.272 276.890,49.147 278.004,49.394 278.782 C 49.559 279.301,49.133 279.610,47.503 280.153 C 46.347 280.539,45.197 280.940,44.950 281.044 C 43.462 281.669,44.225 279.003,46.453 275.789 C 47.744 273.927,48.794 271.997,48.786 271.501 C 48.765 270.164,47.903 268.942,47.100 269.111 M284.643 274.233 C 284.135 275.556,284.539 276.071,289.618 280.586 C 292.830 283.441,294.483 285.150,293.918 285.031 C 293.413 284.924,291.560 284.737,289.800 284.614 C 288.040 284.491,285.244 284.280,283.587 284.145 C 278.523 283.732,278.455 284.981,283.315 289.074 C 285.342 290.780,287.090 292.276,287.200 292.397 C 287.310 292.519,288.447 293.501,289.728 294.581 C 291.391 295.984,292.001 296.754,291.864 297.278 C 291.531 298.552,293.123 299.054,293.592 297.822 C 293.803 297.266,294.337 296.064,294.778 295.151 C 295.219 294.238,295.484 293.336,295.366 293.146 C 295.009 292.567,293.701 292.760,293.444 293.429 C 293.207 294.047,291.541 292.837,285.826 287.897 L 284.252 286.537 287.226 286.831 C 300.176 288.111,300.956 287.737,295.549 282.836 C 293.707 281.167,291.416 279.073,290.458 278.182 L 288.716 276.564 293.458 277.081 C 299.617 277.752,300.030 277.856,299.728 278.644 C 299.503 279.230,300.163 279.979,300.917 279.994 C 301.588 280.007,303.656 274.682,303.114 274.338 C 302.386 273.876,302.166 273.918,301.577 274.628 C 301.185 275.100,300.604 275.200,299.228 275.031 C 298.223 274.908,296.230 274.704,294.800 274.578 C 293.370 274.452,291.030 274.184,289.600 273.982 C 285.894 273.460,284.920 273.509,284.643 274.233 M40.898 277.900 C 41.488 278.563,42.930 281.659,42.705 281.779 C 42.355 281.968,37.354 283.607,37.139 283.604 C 36.089 283.588,35.703 278.991,36.662 277.931 C 37.530 276.972,40.057 276.953,40.898 277.900 M51.053 293.588 C 42.925 296.192,42.217 306.687,49.939 310.103 C 54.557 312.145,61.365 308.545,62.197 303.619 C 63.289 297.156,57.155 291.634,51.053 293.588 M56.884 296.453 C 58.981 297.551,60.421 301.236,59.600 303.404 C 57.286 309.509,48.054 309.438,47.018 303.307 C 46.207 298.504,52.480 294.146,56.884 296.453 M272.676 299.081 C 271.189 301.079,271.379 302.945,272.938 301.651 C 273.412 301.258,273.678 301.431,274.407 302.612 L 275.298 304.053 273.972 305.926 C 273.243 306.957,272.366 308.199,272.023 308.687 C 271.029 310.103,267.956 309.777,268.112 308.273 C 268.278 306.682,266.962 307.085,265.476 309.081 C 263.993 311.073,264.179 312.945,265.733 311.656 C 266.185 311.280,268.006 311.611,274.384 313.225 C 278.827 314.350,282.496 315.210,282.536 315.135 C 282.576 315.061,282.942 314.603,283.350 314.118 C 284.088 313.240,284.067 313.195,279.764 306.361 C 277.230 302.337,275.428 299.056,275.418 298.449 C 275.388 296.713,274.242 296.977,272.676 299.081 M278.969 309.553 C 280.005 311.177,280.615 312.420,280.326 312.314 C 280.037 312.209,278.540 311.797,277.000 311.398 C 273.309 310.443,273.297 310.423,275.022 308.022 C 275.841 306.883,276.640 306.097,276.798 306.275 C 276.956 306.454,277.933 307.929,278.969 309.553 M74.099 316.861 C 73.777 317.183,73.760 317.551,74.041 318.076 C 74.378 318.706,74.127 319.121,72.522 320.594 L 70.600 322.359 68.400 319.958 C 66.256 317.617,66.177 317.573,65.291 318.207 L 64.383 318.857 66.569 321.347 L 68.755 323.838 66.761 325.555 C 64.410 327.580,64.280 327.555,62.043 324.656 C 60.464 322.609,60.374 322.369,60.960 321.783 C 61.761 320.982,61.764 320.634,60.975 319.980 C 60.444 319.538,60.121 319.695,58.807 321.031 L 57.264 322.600 61.228 327.199 C 65.474 332.124,65.520 332.164,66.341 331.644 C 66.750 331.386,66.778 331.106,66.455 330.503 C 66.076 329.795,66.490 329.307,70.114 326.183 C 72.361 324.245,74.613 322.293,75.117 321.845 C 75.907 321.141,76.149 321.101,76.868 321.549 C 78.949 322.849,78.988 321.111,76.933 318.666 C 74.879 316.223,74.792 316.168,74.099 316.861 M254.866 321.017 C 253.730 322.038,252.800 323.133,252.800 323.450 C 252.800 324.227,253.883 324.595,254.548 324.043 C 256.603 322.338,261.605 334.602,260.044 337.518 C 259.265 338.973,260.594 339.540,261.914 338.315 C 262.512 337.761,263.492 336.894,264.094 336.387 C 265.358 335.323,264.921 334.183,263.396 334.565 C 262.602 334.764,260.651 328.816,261.297 328.169 C 261.994 327.473,267.370 329.978,267.384 331.007 C 267.408 332.713,268.030 332.596,270.417 330.439 C 272.480 328.575,272.563 328.429,271.920 327.768 C 271.382 327.214,271.120 327.168,270.664 327.547 C 270.210 327.923,269.253 327.798,266.144 326.956 C 263.975 326.368,261.819 325.807,261.354 325.707 C 260.592 325.545,259.155 324.224,257.650 322.300 C 257.202 321.728,257.196 321.487,257.617 320.980 C 259.180 319.097,256.968 319.126,254.866 321.017 M241.225 333.164 C 233.088 336.464,234.424 345.877,242.745 343.868 C 246.918 342.861,248.000 343.218,248.000 345.600 C 248.000 347.794,244.551 349.569,243.296 348.019 C 241.621 345.951,240.678 347.804,242.251 350.073 C 243.414 351.752,243.997 351.789,246.850 350.361 C 253.364 347.100,250.681 339.232,243.670 341.038 C 237.846 342.538,235.720 338.453,240.968 335.847 L 242.485 335.093 243.368 336.201 C 244.135 337.163,244.365 337.247,245.121 336.842 L 245.991 336.377 244.695 334.396 C 243.983 333.306,243.310 332.421,243.200 332.430 C 243.090 332.438,242.201 332.769,241.225 333.164 M92.652 338.805 C 91.602 340.384,90.801 341.720,90.871 341.773 C 91.205 342.025,94.656 344.296,95.080 344.543 C 95.361 344.707,95.755 344.458,96.031 343.943 C 96.510 343.048,96.248 342.664,94.457 341.633 C 93.849 341.283,95.417 338.414,96.221 338.405 C 97.360 338.392,100.848 340.584,101.585 341.775 C 103.333 344.604,101.917 349.243,98.708 351.199 C 95.185 353.347,88.223 349.794,90.092 346.801 C 90.977 345.384,89.411 344.273,88.399 345.600 C 86.623 347.928,86.592 348.222,87.947 349.933 C 93.425 356.850,102.272 355.468,104.639 347.326 C 106.094 342.321,102.175 337.041,96.381 336.198 L 94.562 335.933 92.652 338.805 M114.120 354.100 C 111.663 360.172,111.225 360.989,110.474 360.907 C 108.161 360.653,108.788 362.253,111.428 363.337 C 114.811 364.727,116.529 364.221,114.393 362.465 C 113.590 361.804,113.597 361.770,115.467 357.095 C 116.502 354.507,117.468 352.527,117.612 352.695 C 117.757 352.863,118.466 355.160,119.188 357.800 C 121.987 368.038,121.712 367.337,123.220 368.081 C 125.417 369.164,126.745 368.249,125.035 366.829 C 124.140 366.086,129.155 354.163,130.310 354.288 C 131.101 354.375,131.797 353.443,131.410 352.816 C 130.906 352.000,126.327 350.672,125.969 351.237 C 125.530 351.930,125.502 352.398,125.900 352.406 C 127.319 352.435,127.246 353.180,125.355 357.948 C 123.575 362.434,122.800 363.720,122.800 362.186 C 122.800 361.848,121.968 358.653,120.951 355.086 C 117.974 344.646,117.947 344.642,114.120 354.100 M212.600 349.095 C 211.500 349.450,210.551 349.773,210.491 349.813 C 210.166 350.029,210.970 351.200,211.443 351.200 C 211.833 351.200,212.000 351.718,212.000 352.928 L 212.000 354.656 208.584 355.680 L 205.168 356.705 204.085 355.285 C 203.347 354.318,203.161 353.813,203.501 353.700 C 204.097 353.501,204.162 352.547,203.603 352.202 C 202.870 351.749,198.760 353.297,198.890 353.978 C 198.955 354.320,199.366 354.658,199.804 354.730 C 200.242 354.801,201.820 356.421,203.312 358.330 C 204.804 360.238,206.514 362.370,207.112 363.067 C 207.710 363.764,208.826 365.130,209.591 366.102 C 210.902 367.768,211.054 367.847,212.234 367.485 L 213.486 367.101 213.761 363.250 C 214.544 352.291,214.725 350.745,215.301 350.083 C 216.679 348.500,215.631 348.117,212.600 349.095 M139.889 355.180 C 139.758 355.681,139.977 356.153,140.502 356.502 L 141.319 357.044 140.447 360.822 C 139.968 362.900,139.343 365.680,139.058 367.000 C 138.630 368.986,138.386 369.423,137.646 369.531 C 135.322 369.871,136.198 371.430,139.014 371.966 C 140.106 372.174,141.315 372.466,141.700 372.615 C 142.646 372.981,142.668 371.284,141.726 370.596 C 140.603 369.774,143.434 357.522,144.823 357.195 C 146.862 356.713,146.168 355.772,143.259 355.069 C 139.867 354.251,140.135 354.242,139.889 355.180 M185.759 355.885 C 184.326 356.066,184.199 358.000,185.620 358.000 C 186.435 358.000,186.648 358.524,186.998 361.400 C 187.274 363.664,187.936 368.460,188.197 370.078 C 188.328 370.888,188.177 371.217,187.586 371.405 C 185.775 371.979,186.651 373.329,188.656 373.054 C 189.677 372.914,191.027 372.800,191.656 372.800 C 192.610 372.800,192.800 372.634,192.800 371.800 C 192.800 371.000,192.600 370.800,191.800 370.800 C 191.250 370.800,190.794 370.575,190.788 370.300 C 190.781 370.025,190.607 368.540,190.401 367.000 C 189.093 357.222,189.116 357.867,190.055 357.158 C 191.774 355.862,190.029 355.345,185.759 355.885 M154.568 357.339 C 154.244 358.184,154.686 358.800,155.616 358.800 C 156.283 358.800,156.360 359.025,156.199 360.500 C 156.097 361.435,155.903 364.495,155.767 367.300 C 155.544 371.896,155.447 372.400,154.783 372.400 C 153.878 372.400,153.518 372.921,153.841 373.764 C 154.021 374.232,154.628 374.399,156.143 374.395 L 158.200 374.389 161.597 368.695 L 164.993 363.000 167.997 369.000 L 171.000 375.000 172.746 375.125 C 175.156 375.298,175.750 375.028,175.203 374.006 C 174.966 373.563,174.499 373.200,174.167 373.200 C 173.645 373.200,173.594 372.491,173.798 368.100 C 174.150 360.508,174.303 359.600,175.225 359.600 C 175.714 359.600,176.000 359.325,176.000 358.854 C 176.000 358.096,174.068 357.600,171.116 357.600 C 169.587 357.600,169.619 359.318,171.153 359.535 C 172.071 359.665,172.097 359.760,171.853 362.093 C 171.714 363.427,171.597 365.976,171.594 367.759 L 171.588 371.000 168.964 365.800 C 165.099 358.141,165.200 358.165,161.670 364.127 C 158.065 370.216,157.894 370.368,158.172 367.241 C 158.297 365.834,158.400 363.452,158.400 361.949 C 158.400 359.367,158.455 359.201,159.400 358.964 C 161.476 358.443,160.653 357.200,158.233 357.200 C 157.041 357.200,155.782 357.091,155.436 356.958 C 155.063 356.816,154.709 356.971,154.568 357.339 M211.690 359.300 C 211.371 364.253,211.282 364.333,209.108 361.614 C 208.067 360.313,207.167 359.027,207.108 358.756 C 207.024 358.373,210.311 356.967,211.626 356.824 C 211.750 356.811,211.779 357.925,211.690 359.300 " stroke="none" fill="#848485" fill-rule="evenodd"></path></g></svg>